<?xml version="1.0" encoding="utf-8"?>
<!-- Generator: Adobe Illustrator 28.1.0, SVG Export Plug-In . SVG Version: 6.00 Build 0)  -->
<svg version="1.1" id="Layer_1" xmlns="http://www.w3.org/2000/svg" xmlns:xlink="http://www.w3.org/1999/xlink" x="0px" y="0px"
	 viewBox="0 0 666.19 240.09" style="enable-background:new 0 0 666.19 240.09;" xml:space="preserve">
<style type="text/css">
	.st0{fill:#FFFFFF;}
	.st1{fill:#1E81F2;}
</style>
<g>
	<path class="st0" d="M196.98,98.51c-0.09,18.72-3.06,36.82-11.92,53.59c-11.35,21.48-29.2,34.85-52.63,40.61
		c-20.89,5.14-41.9,4.65-62.33-2.18c-24.85-8.31-41.77-25.36-50.14-49.96c-10.36-30.47-9.85-61.14,2.62-90.95
		C34.36,21.45,56.47,6.13,86.49,1.57c16.63-2.52,33.18-2.25,49.28,2.59c29.25,8.79,47.49,28.69,56.22,57.56
		C195.61,73.7,197.05,86.02,196.98,98.51z M27.47,97.74c0.13,8.49,1.12,18.49,4.12,28.19c4.55,14.73,12.04,27.54,24.69,36.94
		c16.46,12.23,35.31,15.79,55.23,14.67c16.18-0.91,31.14-5.72,43.83-16.23c15.96-13.21,23.33-30.9,25.91-50.8
		c2.34-18.04,0.72-35.8-5.98-52.88c-7.63-19.43-21.42-32.76-41.06-39.7c-12.07-4.26-24.51-5.61-37.47-4
		c-6.35,0.79-12.81,1.19-18.9,2.98c-18.73,5.52-32.41,17.36-40.97,34.78C30.01,65.65,27.59,80.68,27.47,97.74z"/>
	<path class="st1" d="M632.79,89.08c0,10.7-0.07,21.4,0.06,32.09c0.03,2.13-0.58,2.99-2.66,2.92c-1.5-0.05-3.01-0.15-4.49,0
		c-3.52,0.37-5.97-0.3-5.29-4.65c0.09-0.56,0.16-1.3-0.58-1.59c-0.72-0.28-1.18,0.28-1.58,0.73c-5.7,6.41-12.81,8.03-20.68,5.31
		c-8.39-2.9-12.42-9.72-13.96-17.97c-1.39-7.42-1.09-14.82,1.88-21.98c5.05-12.16,20.51-16.24,30.9-8.08
		c0.76,0.59,1.47,1.73,2.49,1.32c1.34-0.53,0.72-1.96,0.74-2.99c0.11-6.09,0.26-12.19,0.12-18.28c-0.06-2.38,0.7-2.87,2.95-2.89
		c10.33-0.06,10.32-0.13,10.29,10.3c-0.02,8.58,0,17.17,0,25.75C632.91,89.08,632.85,89.08,632.79,89.08z M619.69,98.85
		c0.18-4.49-0.32-8.49-2.68-12.1c-4.14-6.34-12.7-6.79-17.38-0.85c-4.49,5.69-4.25,19.32,0.44,25.03
		c4.12,5.01,11.87,4.86,15.94-0.21C618.89,107.12,619.89,103.01,619.69,98.85z"/>
	<path class="st0" d="M288.7,101.07c0.34,7.13-1.11,14.45,2.22,21.29c0.71,1.47-0.2,1.93-1.63,1.88c-2.25-0.07-4.5-0.06-6.74-0.02
		c-2.65,0.04-4.95-0.06-5.29-3.65c-0.2-2.19-1.54-1.5-2.81-0.49c-6.17,4.93-13.12,6.39-20.68,4.11
		c-6.65-2.01-10.23-7.16-10.35-14.27c-0.11-6.46,3.12-10.98,9.66-13.51c5.93-2.29,12.28-2.94,18.36-4.63
		c1.78-0.5,4.18-0.48,3.95-3.45c-0.21-2.78-0.93-5.07-3.96-6.05c-5.77-1.88-10.47-0.5-13.88,4.36c-0.59,0.84-1.14,1.24-2.09,1.08
		c-3.06-0.52-6.11-1.05-9.17-1.59c-1.99-0.35-0.99-1.64-0.7-2.55c1.71-5.52,5.52-9.18,10.94-10.75c7.82-2.27,15.74-2.17,23.49,0.58
		c4.76,1.69,7.3,5.09,8.14,10.14C289.12,89.4,288.43,95.24,288.7,101.07z M275.31,104.23c0.07-0.99,0.06-1.99,0.23-2.96
		c0.25-1.4-0.39-2-1.61-1.63c-4.39,1.33-9.02,1.78-13.25,3.65c-2.45,1.08-4.36,2.84-3.99,5.65c0.4,3.05,1.85,5.56,5.29,6.43
		C269.18,117.21,275.13,112.33,275.31,104.23z"/>
	<path class="st0" d="M365.85,118.08c-5.98,5.17-11.88,7.58-18.9,7c-7.83-0.65-13.7-5.67-14.65-12.9
		c-1.01-7.71,2.76-13.78,10.61-16.16c5.81-1.76,11.8-2.88,17.7-4.35c1.6-0.4,3.73-0.31,3.77-2.79c0.04-2.63-0.68-4.98-3.22-6.26
		c-5.07-2.56-11.31-0.92-14.68,3.86c-0.72,1.03-1.48,1.53-2.79,1.24c-2.19-0.48-4.4-1.07-6.61-1.15c-3.59-0.13-3.24-2.08-2.24-4.3
		c2.26-5.07,6.12-8.34,11.55-9.68c7.18-1.77,14.36-1.66,21.41,0.44c6.35,1.89,9.23,5.73,9.47,12.69c0.24,6.96,0.1,13.94,0.07,20.91
		c-0.02,5.12,0.28,10.19,2.15,15.03c0.75,1.94,0.37,2.74-1.83,2.59c-1.74-0.12-3.51-0.18-5.24,0.01
		C368.43,124.71,365.77,123.59,365.85,118.08z M364.44,103.34c-0.89-0.97,1.85-4.43-2.2-3.65c-3.99,0.77-7.93,1.87-11.81,3.1
		c-2.89,0.91-5.13,2.67-4.76,6.18c0.34,3.22,1.92,5.45,5.18,6.44C357.93,117.56,364.36,112.01,364.44,103.34z"/>
	<path class="st1" d="M557.24,101.98c-4.87,0-9.75,0.01-14.62,0c-1.53,0-2.65,0.23-2.58,2.24c0.2,5.64,6.06,11.2,11.73,10.95
		c3.53-0.16,6.32-1.7,7.65-5.02c0.66-1.65,1.51-2.05,3.09-1.76c1.96,0.35,3.95,0.58,5.92,0.89c5.32,0.85,5.5,1.21,2.73,5.92
		c-1.82,3.09-4.46,5.36-7.6,7.01c-17.22,9.05-35.85-1.4-37.03-20.76c-0.32-5.27,0.16-10.39,2.2-15.38
		c4.25-10.41,12.03-15.13,24.03-14.29c10.69,0.75,17.63,6.69,20.1,17.41c0.69,3.02,0.93,6.15,1.42,9.22c0.4,2.51-0.4,3.65-3.17,3.54
		c-4.62-0.18-9.24-0.05-13.87-0.05C557.24,101.93,557.24,101.95,557.24,101.98z M550.02,94.09c0-0.06,0-0.13,0-0.19
		c2.87,0,5.73-0.04,8.6,0.01c2.6,0.05,2.78-1.38,2.31-3.39c-1.26-5.36-5.62-8.97-10.6-8.72c-5.31,0.27-9.1,4.13-9.97,9.84
		c-0.3,2.01,0.53,2.45,2.18,2.45C545.03,94.1,547.53,94.09,550.02,94.09z"/>
	<path class="st1" d="M446.18,101.98c-4.87,0-9.74,0-14.6,0c-1.28,0-2.47-0.04-2.54,1.85c-0.11,3.11,3.4,8.72,6.63,10.27
		c3.84,1.85,8.28,1.25,11.13-1.49c0.18-0.17,0.34-0.38,0.54-0.51c1.45-0.93,0.72-3.91,3.08-3.72c3.59,0.29,7.2,0.79,10.7,1.65
		c1.77,0.43,0.72,2.05,0.22,3.1c-3.1,6.43-8.45,9.93-15.24,11.48c-11.67,2.66-23.42-2.14-27.46-11.47
		c-3.7-8.52-4.28-17.28-1.14-26.16c5.35-15.1,24.38-20.77,36.84-10.63c7.37,5.99,8.63,14.76,8.99,23.64
		c0.09,2.11-1.58,1.88-2.92,1.89c-4.74,0.03-9.49,0.01-14.23,0.01C446.18,101.93,446.18,101.95,446.18,101.98z M439.13,94.09
		c0-0.02,0-0.04,0-0.06c2.74,0,5.49-0.07,8.23,0.02c2.32,0.07,3.1-0.85,2.67-3.14c-0.93-5.06-4.95-9-9.89-9.05
		c-6.01-0.07-8.96,2.33-11.07,8.28c-0.98,2.75-0.1,4.1,2.95,3.98C434.38,94.01,436.76,94.09,439.13,94.09z"/>
	<path class="st1" d="M494.16,125.06c-4.79,0.09-9.68-1.04-14.45-3.21c-4.53-2.07-7.18-5.56-9.03-9.95
		c-0.68-1.6-0.38-2.31,1.33-2.54c1.86-0.25,3.72-0.49,5.54-0.91c3.33-0.78,5.74-1.09,7.68,3.09c2.34,5.04,13.75,5.83,17.85,1.9
		c2.54-2.44,1.66-6.17-1.78-7.31c-6.39-2.11-13.17-2.82-19.44-5.4c-7.85-3.22-10.99-8.91-9.47-17.2c0.85-4.65,3.71-7.55,7.84-9.26
		c8.81-3.64,17.76-3.57,26.67-0.34c1.5,0.54,2.98,1.39,4.17,2.43c2.38,2.08,4.97,4.97,4.41,7.78c-0.4,1.98-4.53,1.53-7.02,2.13
		c-2.96,0.72-4.84,0.36-6.84-2.43c-2.57-3.58-12.1-3.93-15.76-1.24c-2.31,1.7-1.95,4.45,0.87,5.93c2.9,1.53,6.17,1.98,9.29,2.83
		c3.85,1.05,7.79,1.86,11.54,3.19c6.82,2.41,10.54,7.04,10.53,13.03c-0.01,6.94-3.72,11.59-9.71,14.71
		C504.04,124.57,499.37,125.1,494.16,125.06z"/>
	<path class="st0" d="M316.51,54.51c0,5.32,0.17,10.05-0.06,14.77c-0.15,2.89,0.87,3.52,3.61,3.45c5.67-0.15,5.32,0.04,5.71,5.64
		c0.29,4.24-1.21,5.57-5.09,4.86c-3.62-0.66-4.33,1.01-4.21,4.29c0.24,6.84,0.06,13.69,0.1,20.54c0.03,5.45,1.68,6.99,6.82,5.52
		c2.06-0.59,2.31-0.14,2.52,1.5c0.27,2.09,0.58,4.18,0.95,6.26c0.25,1.37-0.35,2.26-1.55,2.58c-4.73,1.28-9.53,2.02-14.35,0.52
		c-5.38-1.67-7.72-5.38-7.88-12.91c-0.17-8.09-0.15-16.18-0.03-24.27c0.04-2.79-0.2-4.72-3.75-3.99c-1.94,0.4-2.7-0.51-2.48-2.49
		c0.17-1.48,0.26-3.02,0.03-4.47c-0.48-2.97,0.59-4.19,3.58-3.68c2.03,0.34,2.94-0.68,2.52-2.52c-1.56-6.87,2.28-10.15,7.94-12.44
		C312.68,56.92,314.3,55.76,316.51,54.51z"/>
	<path class="st1" d="M391.5,88.51c0-10.82,0.08-21.64-0.06-32.45c-0.03-2.54,0.76-3.03,3.17-3.03
		c10.15,0.02,10.16-0.07,10.11,10.02c-0.09,19.4-0.24,38.79-0.26,58.19c0,2.13-0.63,2.76-2.71,2.88
		c-10.19,0.58-10.21,0.64-10.23-9.5c-0.02-8.7,0-17.41,0-26.11C391.51,88.51,391.51,88.51,391.5,88.51z"/>
	<path class="st0" d="M220.03,79.67c1.92-2.44,3.25-4.53,5.19-6.11c3.45-2.8,10.52-2.9,14.07-0.31c1.09,0.8,0.99,1.66,0.71,2.58
		c-0.36,1.17-0.97,2.26-1.41,3.41c-0.7,1.84-0.9,4.13-2.14,5.43c-1.55,1.62-3.15-0.91-4.95-1.12c-4.56-0.52-8.06,1.62-9.38,6.52
		c-1.47,5.45-1.52,11.06-1.52,16.66c0,4.98-0.12,9.96,0.05,14.93c0.07,2.01-0.54,2.5-2.47,2.6c-11.16,0.54-11.1,0.59-10.98-10.47
		c0.14-12.57,0.28-25.14,0.2-37.71c-0.02-2.8,0.71-3.91,3.52-3.45c0.61,0.1,1.25,0,1.87,0C219.44,72.61,219.44,72.61,220.03,79.67z"
		/>
	<path class="st0" d="M430.58,136.04c1.12,0.07,2.26,0.02,3.35,0.23c3.49,0.68,5.87,2.76,6.79,6.16c0.86,3.19-0.15,6.17-2.91,7.84
		c-3.3,2-3.63,3.79-0.83,6.34c1.27,1.16,1.89,5.01,4.03,0.37c0.99-2.16,3.38-0.11,5.03,0.2c1.59,0.3,0.89,1.73,0.39,2.72
		c-1.64,3.23-2.72,6.21,1.87,8.12c1.6,0.67,1.2,2.12,0.02,2.96c-1.3,0.92-1.96,4.33-4.02,2.36c-3.14-3.02-5.6-2.58-9.04-0.66
		c-3.56,1.98-7.76,1.87-11.64,0.61c-4.06-1.31-6.8-4.1-7.35-8.53c-0.63-4.99,1.62-8.72,5.64-11.32c1.93-1.25,2.16-2.14,0.81-3.97
		c-2.13-2.9-2.76-6.26-0.85-9.43C423.76,136.9,426.95,135.81,430.58,136.04z M428.84,168.3c1.38,0.09,2.79-0.33,4.07-1.17
		c0.86-0.57,2.52-1.01,1.71-2.35c-1.72-2.85-3.71-5.56-6.22-7.81c-0.4-0.36-0.86-0.26-1.37-0.08c-2.18,0.8-4.57,4.78-3.93,7.03
		C423.87,166.62,425.44,168.57,428.84,168.3z M435.02,144.37c-0.2-2.51-1.67-3.57-3.71-3.68c-1.79-0.1-3.77,0.33-3.75,2.63
		c0.02,2.16,1.02,4.54,3.25,4.84C433.15,148.47,434.13,146.09,435.02,144.37z"/>
	<path class="st1" d="M660.06,98.36c0,7.47-0.09,14.94,0.05,22.4c0.04,2.33-0.45,3.26-3.02,3.33c-9.92,0.27-9.94,0.37-9.95-9.42
		c-0.01-12.94,0.07-25.89-0.04-38.83c-0.02-2.45,0.64-3.4,3.14-3.14c3.19,0.34,7.28-1.36,9.38,0.65c1.93,1.84,0.47,5.88,0.55,8.95
		c0.13,5.35,0.04,10.7,0.04,16.05C660.16,98.36,660.11,98.36,660.06,98.36z"/>
	<path class="st0" d="M388.46,168.94c-3.9,4.03-7.85,5.29-12.3,3.4c-5.1-2.18-7.2-7.5-6.47-15.69c0.47-5.3,3.62-8.88,8.77-10.26
		c3.26-0.87,5.83,0.28,8.25,2.24c1.15,0.93,1.94,1.93,2.46-0.72c0.45-2.31,2.93-1.02,4.5-1.2c1.65-0.19,1.62,1.14,1.61,2.29
		c-0.05,8.33,0.12,16.68-0.24,25c-0.29,6.8-3.95,9.96-10.83,10.08c-2.6,0.04-5.22,0.3-7.78-0.63c-2.19-0.8-3.96-2.01-5.15-4.03
		c-0.58-0.99-1.23-2.14-0.66-3.13c0.68-1.19,2.06-0.5,3.07-0.32c2,0.37,3.97,0.37,5.71,2.12c1.79,1.8,4.45,0.98,6.7,0.21
		c1.99-0.68,2.31-2.43,2.34-4.25C388.48,172.68,388.46,171.32,388.46,168.94z M388.45,159.48c0.35-1.73-0.3-3.5-1.1-5.17
		c-1.02-2.13-2.99-2.97-5.2-3c-2.37-0.03-4.04,1.31-4.82,3.46c-1.18,3.23-1.45,6.55,0.07,9.76c1.81,3.83,6.25,4.46,9.13,1.34
		C388.15,164.13,388.71,162.02,388.45,159.48z"/>
	<path class="st0" d="M475.6,170.33c0,3.99-0.13,7.22,0.05,10.44c0.12,2.04-0.33,3.14-2.56,2.64c-1.58-0.35-4.14,1.37-4.09-2.38
		c0.12-10.58-0.04-21.15-0.08-31.73c-0.01-1.26-0.09-2.77,1.77-2.56c1.62,0.18,4.07-1.38,4.62,1.53c0.42,2.2,1.04,1.7,2.29,0.63
		c5.1-4.35,12.02-3.23,15.12,2.63c2.54,4.8,3.11,9.93,1.04,15.12c-2.87,7.17-9.64,9.27-16.07,5.03
		C477.19,171.35,476.69,171.04,475.6,170.33z M475.55,160.82c0.06,0.82-0.05,1.61,0.18,2.28c0.99,2.92,2.4,5.55,5.95,5.81
		c2.76,0.2,4.44-1.44,5.3-3.83c1.19-3.34,1.43-6.79,0.02-10.13c-1.74-4.11-6.38-4.7-9.3-1.35
		C475.84,155.74,475.75,158.31,475.55,160.82z"/>
	<path class="st0" d="M310.2,170.24c-3.11,3.25-6.92,4.76-11.14,3.01c-4.77-1.97-7.22-5.91-7.38-11.13
		c-0.09-2.97-0.28-5.94,0.77-8.84c2.38-6.55,9.51-9.05,15.38-5.31c0.7,0.44,1.27,1.46,2.24,0.9c0.92-0.53,0.39-1.58,0.41-2.39
		c0.07-1.99,0.02-3.98,0.02-5.97c-0.01-4.17,1.48-5.25,5.57-4.24c1.46,0.36,1.22,1.34,1.22,2.28c0,10.7-0.03,21.39-0.04,32.09
		c0,1.41,0.11,2.92-1.99,2.77c-1.88-0.14-4.53,0.94-4.47-2.57c0.07-0.26,0.13-0.52,0.2-0.78
		C310.73,170.12,310.46,170.18,310.2,170.24z M298.43,160.23c0.09,1.08-0.03,2.38,0.36,3.51c0.81,2.36,1.8,4.59,4.92,4.8
		c3.17,0.22,4.79-1.59,5.95-4.08c0.97-2.08,1-4.33,0.77-6.55c-0.41-3.97-2.95-6.66-6.18-6.7c-2.88-0.04-4.99,2.29-5.63,6.28
		C298.49,158.34,298.5,159.21,298.43,160.23z"/>
	<path class="st0" d="M285.5,162.02c0.12,2.73,0.3,5.46,0.34,8.19c0.02,1.06,1.78,2.63-0.13,3.06c-1.77,0.39-4.55,1.18-5.47-0.94
		c-1.04-2.41-1.65-1.55-2.95-0.54c-2.5,1.94-5.39,2.38-8.48,1.87c-3.62-0.6-6.15-3.23-6.36-6.64c-0.25-4.12,1.71-7.32,5.36-8.29
		c2.64-0.7,5.35-1.1,8.04-1.63c1.51-0.3,3.09-0.61,3.06-2.58c-0.03-1.92-1.45-2.86-3.09-3.22c-2.01-0.44-3.96-0.14-5.49,1.48
		c-0.68,0.72-1.34,1.68-2.39,1.63c-1.58-0.08-3.64-0.12-4.39-1.43c-0.73-1.29,0.76-2.67,1.77-3.71c3.94-4.07,13.61-4.36,17.96-0.76
		c2.27,1.88,2,4.42,2.24,6.82c0.22,2.21,0.05,4.47,0.05,6.7C285.54,162.02,285.52,162.02,285.5,162.02z M278.98,162.65
		c-0.08-1.1-0.08-2.62-1.72-1.89c-2.81,1.26-7.36,0.01-7.96,4.56c-0.3,2.29,1.36,3.85,3.98,3.8
		C276.63,169.05,279.08,166.28,278.98,162.65z"/>
	<path class="st0" d="M589.28,166.05c-2.78,8.28-14.75,10.62-20.31,4.36c-4.41-4.97-4.73-14.51-0.66-19.79
		c5.5-7.12,16.78-5.71,20.19,2.59c0.65,1.58,0.72,3.39,1.21,5.05c0.89,3.03-0.01,3.96-3.25,3.62c-3.7-0.38-7.46-0.19-11.2-0.11
		c-3.23,0.07-3.68,1-2.1,3.86c2.13,3.87,6.21,4.31,8.97,0.85C584.57,163.44,586.83,167.33,589.28,166.05z M577.63,157.89
		c0-0.01,0-0.03,0-0.04c0.74,0,1.5,0.06,2.23-0.01c1.06-0.11,2.51,0.63,3.1-0.49c0.68-1.28-0.16-2.58-0.89-3.77
		c-0.86-1.39-2.15-2.06-3.65-2.3c-2.46-0.41-6.12,2.56-5.92,5.04c0.27,3.27,3,0.76,4.39,1.57
		C577.07,157.98,577.38,157.89,577.63,157.89z"/>
	<path class="st0" d="M546.82,160.04c0.05,7.86-5.72,13.81-13.41,13.83c-8.38,0.02-13.66-5.49-13.65-14.25
		c0.01-7.57,5.84-13.46,13.42-13.54C541.16,145.99,546.77,151.73,546.82,160.04z M540.03,160.07c0.02-5.03-2.48-8.22-6.52-8.33
		c-4.2-0.11-6.91,3.12-6.97,8.32c-0.06,5.07,2.72,8.4,6.94,8.33C537.48,168.32,540.01,165.11,540.03,160.07z"/>
	<path class="st0" d="M346.61,150.09c3.22-2.87,6.56-5.06,11.11-3.53c3.26,1.1,5.49,3.03,5.6,6.59c0.19,6.09,0.31,12.19,0.2,18.28
		c-0.05,2.91-2.67,1.79-4.3,2.08c-1.81,0.32-2.36-0.53-2.32-2.3c0.11-4.48,0.12-8.96,0.02-13.44c-0.1-4.37-1.63-6.43-4.55-6.54
		c-3.3-0.12-5.77,2.55-5.93,6.7c-0.17,4.35-0.29,8.71-0.17,13.06c0.08,2.83-1.68,2.49-3.44,2.48c-1.7-0.01-3.48,0.5-3.42-2.4
		c0.15-7.09,0-14.19,0.05-21.28c0.01-1.31-0.68-3.38,1.88-3.08c1.77,0.2,4.62-1.42,4.65,2.35
		C346,149.33,346.33,149.62,346.61,150.09z"/>
	<path class="st0" d="M652.69,173.8c-3.87,0.07-7.47-0.78-10.3-3.57c-1.04-1.03-2.82-2.2-1.63-4.01c0.88-1.34,5.59-0.99,6.62,0.24
		c2.25,2.7,5.93,3.49,8.63,1.89c1.03-0.61,1.8-1.35,1.67-2.66c-0.12-1.25-1.16-1.53-2.1-1.8c-2.87-0.81-5.8-1.44-8.64-2.36
		c-4.14-1.33-5.99-3.83-5.91-7.58c0.08-3.61,2.26-6.19,6.38-7.18c4.76-1.14,9.45-1.11,13.53,2.06c1.16,0.9,3.16,2.55,1.87,3.71
		c-1.35,1.21-3.97,2.75-5.95,0.6c-2.1-2.28-4.6-2.22-7.22-1.96c-1.1,0.11-2.37,0.45-2.51,1.8c-0.14,1.36,0.96,1.92,2.09,2.26
		c2.03,0.6,4.06,1.23,6.12,1.7c6.76,1.55,9.57,4.23,9.14,8.8c-0.42,4.49-4.47,7.51-10.66,7.95
		C653.44,173.74,653.07,173.77,652.69,173.8z"/>
	<path class="st1" d="M5.13,210.36c-1.72,4.03-1.06,7.98-1.11,11.89c-0.01,0.99,0.05,1.98,0.08,2.98c0.06,1.83-1.25,1.84-2.54,1.93
		c-1.49,0.11-1.57-0.9-1.57-1.94c0.02-6.71,0.09-13.42,0.05-20.14c-0.01-1.67,0.96-1.89,2.15-1.7c1.86,0.3,4.49-1.4,5.31,1.79
		c0.86,3.36,1.62,6.74,2.39,10.12c0.22,0.96,0.28,2.26,1.38,2.38c1.58,0.17,1.41-1.38,1.68-2.38c0.75-2.75,1.48-5.51,2.18-8.27
		c0.85-3.36,2.94-4.5,6.36-3.73c1.61,0.36,1.51,1.44,1.53,2.51c0.06,6.09,0.1,12.18,0.09,18.26c0,1.49-0.01,3.2-2.26,3.06
		c-2.02-0.12-1.83-1.71-1.84-3.05c-0.03-4.27-0.01-8.53-0.4-12.84c-2.34,3.1-2.44,6.84-3.45,10.28c-0.31,1.07-0.54,2.16-0.76,3.25
		c-0.37,1.84-1.78,2.28-3.34,2.38c-1.65,0.11-2-1.18-2.31-2.42C7.54,219.94,6.33,215.15,5.13,210.36z"/>
	<path class="st0" d="M607.32,173.78c-9.47-0.16-14.45-7.92-11.82-18.71c1.2-4.93,4.6-7.87,9.6-8.76c4.89-0.87,9.18,0.3,12.32,4.35
		c0.81,1.04,2.6,2.73,0.62,3.66c-1.64,0.77-4.21,2.63-5.89-0.19c-1.48-2.48-3.6-2.89-6.07-2.39c-2.52,0.5-3.59,2.28-4.07,4.73
		c-0.6,3.03-0.47,5.86,0.75,8.74c0.91,2.15,2.44,3,4.6,3.15c2.19,0.15,3.86-0.54,4.92-2.59c0.87-1.67,5.5-2.5,6.74-1.3
		c0.83,0.8,0.29,1.56-0.03,2.36C617.13,171.51,613.17,173.88,607.32,173.78z"/>
	<path class="st0" d="M226.87,161.15c0-2.23-0.06-4.47,0.03-6.7c0.04-1.13-0.13-2.11-1.37-2.21c-1.58-0.13-2.2-0.77-1.96-2.34
		c0.2-1.29-0.25-2.9,1.7-3.23c1.89-0.32,2.03-1.73,1.75-3.08c-0.27-1.31-0.07-2.31,1.11-2.79c1.84-0.75,3.35-3.43,4.98-2.7
		c1.83,0.82,0.67,3.57,0.76,5.45c0.1,1.95,0.21,3.42,2.8,3.12c1.8-0.2,1.97,1.15,1.8,2.5c-0.15,1.17,0.73,3.01-1.66,2.87
		c-2.66-0.15-3.03,1.41-2.95,3.56c0.11,2.73,0.04,5.46,0.04,8.19c0,2.37-0.39,4.75,3.52,4.37c2.25-0.22,0.76,2.38,1.53,3.57
		c0.65,1.01-0.54,1.63-1.65,1.81c-5.65,0.89-10.69,0.42-10.27-7.94c0.07-1.48,0.01-2.98,0.01-4.47
		C226.98,161.15,226.92,161.15,226.87,161.15z"/>
	<path class="st0" d="M632.26,138.05c0,1.47,0.02,2.94,0,4.41c-0.03,2.22-0.57,4.53,3.17,4.31c1.97-0.12,1.19,2.04,1.45,3.26
		c0.3,1.44-0.28,2.1-1.77,2.01c-2.32-0.14-2.97,1.1-2.88,3.24c0.13,2.98-0.15,5.98,0.11,8.95c0.16,1.84-0.69,5.04,3.47,3.73
		c1.49-0.47,1.2,1.44,1.46,2.41c0.35,1.29,0.37,2.37-1.21,3.01c-5.69,2.31-10.44-0.72-10.55-6.84c-0.06-3.48,0-6.96-0.05-10.44
		c-0.03-1.72,0.8-3.72-2.25-4.15c-1.49-0.21-1.14-4.28,0.53-5.1c0.8-0.39,1.9-0.5,1.69-1.56c-1.04-5.14,3.83-5.17,5.92-7.58
		C631.64,137.82,631.95,137.93,632.26,138.05z"/>
	<path class="st1" d="M368.23,214.85c0-3.1,0.07-6.21-0.02-9.31c-0.05-1.6,0.53-2.26,2.13-2.22c4.11,0.09,8.22-0.01,12.32,0.22
		c3.16,0.17,4.38,2.43,4.77,5.28c0.36,2.65-0.04,5.11-2.77,6.2c-2.6,1.04-2.04,2.13-0.71,3.8c1.53,1.93,2.86,4.03,4.24,6.07
		c1.05,1.55,0.45,2.23-1.28,2.3c-1.92,0.08-3.25-0.72-4.37-2.29c-1.65-2.31-2.9-4.94-5.13-6.82c-1.08-0.91-2.31-1.65-3.73-1
		c-1.3,0.6-0.83,1.93-0.87,3c-0.06,1.61-0.12,3.23,0,4.84c0.13,1.77-0.89,2.11-2.28,2.14c-1.46,0.04-2.35-0.46-2.32-2.14
		C368.27,221.55,368.22,218.2,368.23,214.85z M377.36,213.43c2.26-0.44,5.95,0.62,5.5-3.49c-0.43-4.03-4.08-2.58-6.6-2.87
		c-2.88-0.34-3.62,1.09-3.53,3.74C372.84,214.39,375.32,213.32,377.36,213.43z"/>
	<path class="st0" d="M559.2,162.59c0,4.6,0.23,9.22-0.06,13.8c-0.39,6.2-3.69,8.6-9.78,7.55c-1.04-0.18-2.79-0.29-2.38-1.65
		c0.44-1.47-0.4-4.21,1.97-4.27c3.73-0.1,3.52-2.66,3.57-4.89c0.17-7.71,0.22-15.43,0.11-23.15c-0.03-2.4,0.26-3.6,3.13-3.48
		c2.49,0.11,3.95,0.26,3.74,3.38c-0.28,4.21-0.07,8.46-0.07,12.69C559.36,162.59,559.28,162.59,559.2,162.59z"/>
	<path class="st1" d="M555,215.17c0-3.11,0.12-6.22-0.04-9.32c-0.1-2.01,0.67-2.62,2.57-2.57c4.24,0.1,8.48,0.07,12.73,0.1
		c1.14,0.01,2.38-0.09,2.33,1.6c-0.04,1.56-0.89,2.06-2.44,2c-2.62-0.09-5.24,0.12-7.86,0.03c-2.46-0.08-2.9,1.28-2.83,3.32
		c0.07,2.05,0.95,2.89,3.05,2.72c2.35-0.19,4.73-0.16,7.09-0.23c1.4-0.04,2.02,0.62,2,2.03c-0.02,1.49-0.99,1.44-2.04,1.44
		c-2.25-0.01-4.52,0.27-6.73-0.02c-3.3-0.43-3.21,1.43-3.34,3.78c-0.15,2.79,0.98,3.42,3.52,3.21c2.6-0.22,5.24,0.01,7.85-0.07
		c1.33-0.04,2.12,0.18,2.15,1.76c0.02,1.54-0.74,1.9-2.06,1.92c-4.62,0.07-9.23,0.16-13.84,0.29c-1.66,0.05-2.15-0.77-2.12-2.29
		C555.04,221.64,555,218.41,555,215.17z"/>
	<path class="st1" d="M104.21,219.53c-0.04,3.58,0.51,7.23-0.78,10.72c-1.07,2.9-3.34,3.74-6.17,3.92
		c-3.27,0.21-6.34-0.22-8.41-2.97c-0.93-1.23-0.35-2.4,1.49-2.34c1.33,0.04,2.3,0.86,3.37,1.48c2.14,1.24,4.1,0.99,5.61-1.04
		c0.75-1,1.45-2.27,0.52-3.41c-0.87-1.07-1.77,0.13-2.63,0.44c-4.89,1.8-8.77-0.55-9.36-5.76c-0.31-2.75-0.19-5.48,1.3-7.96
		c1.58-2.63,5.06-3.99,7.75-2.63c1.72,0.87,2.9,1.23,4.66-0.03c1.34-0.96,2.64-0.22,2.64,1.73
		C104.21,214.3,104.21,216.92,104.21,219.53z M92.04,218.28c0.41,2.02-0.6,5.11,3.26,5.33c3.12,0.17,4.76-1.64,4.75-5.16
		c-0.01-3.6-1.75-6.11-4.27-5.85C92.52,212.93,92.09,215.4,92.04,218.28z"/>
	<path class="st1" d="M646.27,215.95c0.8,5.03-0.61,9.24-0.64,13.58c-0.03,4.08-7.77,6.24-12.13,3.55
		c-1.25-0.77-3.65-1.68-2.78-3.39c1.02-2.01,3.05-0.57,4.5,0.23c2.21,1.22,4.21,2.05,6.34-0.29c1.04-1.14,1.08-2.22,0.55-3.32
		c-0.73-1.53-1.9-0.57-2.86-0.18c-4.91,1.97-8.95-0.54-9.32-5.84c-0.52-7.29,1.33-10.33,6.69-10.5c2.71-0.08,5.34,1.62,8.2,0
		c0.92-0.52,1.48,0.9,1.46,2.01C646.24,213.41,646.27,215.03,646.27,215.95z M634.31,217.74c0.21,2.47-0.4,5.69,3.49,5.75
		c2.62,0.04,4.57-1.21,4.3-4.36c-0.24-2.76,0.5-6.21-3.71-6.52C634.91,212.36,634.05,214.71,634.31,217.74z"/>
	<path class="st0" d="M507.25,150.56c1.86-2.56,3.32-4.41,5.86-4.14c1.46,0.16,4.2-0.83,4.02,1.75c-0.13,1.92,0.1,5.22-4.25,4.22
		c-3.39-0.78-4.75,2.19-5,5.1c-0.37,4.31-0.75,8.67-0.48,12.97c0.21,3.32-1.75,2.83-3.68,3.08c-2.3,0.29-3.02-0.55-2.97-2.87
		c0.15-6.69,0-13.39,0.12-20.09c0.03-1.41-1.38-3.85,1.76-3.86C504.85,146.71,508.01,145.48,507.25,150.56z"/>
	<path class="st0" d="M250.5,150.07c2-2.9,4.12-4.56,7.43-3.67c1.24,0.33,2.84,0.42,2.09,2.16c-0.64,1.47,0.32,4.04-2.69,4.15
		c-5.77,0.2-6.65,1.14-6.81,6.98c-0.11,3.73-0.3,7.47-0.11,11.19c0.16,3.15-1.88,2.48-3.68,2.62c-2.03,0.15-3.22-0.1-3.14-2.7
		c0.2-6.83,0.05-13.68,0.17-20.52c0.02-1.32-1.17-3.35,1.74-3.6C248.79,146.39,249.34,146.55,250.5,150.07z"/>
	<path class="st1" d="M456.57,221.09c1.49-2.98,1.39-5.64,2.04-8.13c0.45-1.74,1.33-2.88,3.13-3.03c2.03-0.17,2.4,1.58,2.73,2.92
		c0.7,2.82,1.01,5.76,3.49,8.74c-0.39-3.77,1.34-6.36,1.71-9.28c0.27-2.11,1.7-2.77,3.49-2.17c1.83,0.62,0.73,1.98,0.38,3.07
		c-1.22,3.77-2.54,7.51-3.62,11.32c-0.49,1.73-1.42,2.6-3.12,2.53c-1.75-0.07-2.56-1.15-2.84-2.87c-0.32-1.95-0.91-3.86-1.34-5.79
		c-0.2-0.88-0.31-1.76-1.58-1.55c-1.13,0.18-1.42,0.92-1.2,1.89c0.5,2.18-0.31,4.14-0.86,6.17c-0.38,1.41-1.28,2.16-2.65,2.17
		c-1.17,0.01-2.16-0.53-2.58-1.78c-1.55-4.55-3.12-9.09-4.68-13.64c-0.3-0.88,0.11-1.46,0.95-1.69c1.49-0.41,2.82-0.11,3.35,1.48
		c0.85,2.58,1.54,5.22,2.32,7.83C455.84,219.76,456.12,220.18,456.57,221.09z"/>
	<path class="st1" d="M136.98,215.77c-0.08-9.71,6.77-15.17,14.84-12.31c1.81,0.64,3.33,1.69,4.36,3.35
		c0.56,0.91,1.69,2.02,0.34,2.88c-1.17,0.75-3.05,1.64-4.03,0.06c-1.72-2.78-3.98-3.68-6.93-2.76c-3.34,1.04-3.68,4.04-4.14,6.9
		c-0.37,2.32,0.24,4.49,1.15,6.52c1.81,4.09,6.24,4.4,9.27,0.67c1.2-1.48,2.58-2.91,4.32-1.51c1.94,1.56,0.17,3.08-0.86,4.41
		c-2.76,3.57-6.53,3.79-10.5,2.89c-4.02-0.91-6.55-3.47-7.44-7.49C137.05,218.06,137.06,216.66,136.98,215.77z"/>
	<path class="st1" d="M496.35,214.73c0-2.99,0.1-5.98-0.04-8.96c-0.08-1.74,0.41-2.49,2.26-2.46c1.76,0.03,2.11,0.78,1.87,2.34
		c-0.17,1.1-0.03,2.24-0.09,3.35c-0.09,1.73,0.56,2.33,2.2,1.53c3.19-1.55,6.28-1.32,8.41,1.54c2.36,3.16,2.89,6.96,1.27,10.62
		c-1.99,4.48-4.77,5.43-9.4,3.58c-1.1-0.44-1.97-0.77-3.11,0.02c-2.84,1.96-3.4,0.3-3.37-2.24
		C496.38,220.95,496.35,217.84,496.35,214.73z M508.69,218.75c-0.13-2.79-0.24-5.79-3.85-6.18c-2.5-0.27-4.65,2.99-4.54,6.26
		c0.1,3.04,1.72,5.21,4.68,5.22C508.1,224.05,508.9,221.54,508.69,218.75z"/>
	<path class="st1" d="M653.55,233.99c-1.28,0.02-2.74-0.03-3.08-1.49c-0.52-2.24,1.58-1.31,2.51-1.66c2.19-0.8,3.01-2.41,2.35-4.4
		c-1.47-4.46-3.21-8.83-4.87-13.22c-0.44-1.17-1.94-2.51,0.07-3.38c1.61-0.7,2.91,0.17,3.53,1.83c0.91,2.45,1.79,4.9,2.64,7.37
		c0.28,0.83,0.41,1.96,1.37,2.02c1.14,0.07,1.02-1.17,1.28-1.95c0.77-2.36,1.6-4.71,2.31-7.09c0.52-1.72,1.75-2.68,3.35-2.22
		c2.07,0.6,0.86,2.22,0.45,3.34c-2.1,5.72-4.28,11.41-6.44,17.1C658.08,232.76,656.21,233.94,653.55,233.99z"/>
	<path class="st0" d="M331.56,160.02c0,3.72-0.13,7.45,0.03,11.17c0.14,3.08-2.06,2.09-3.56,2.23c-1.6,0.15-3.29,0.44-3.26-2.19
		c0.08-7.57,0.08-15.14-0.03-22.71c-0.04-2.61,1.75-2.04,3.03-1.83c1.36,0.22,3.82-1.47,3.8,1.79
		C331.54,152.32,331.56,156.17,331.56,160.02z"/>
	<path class="st1" d="M491.88,220.59c0,1.12-0.1,2.25,0.02,3.35c0.27,2.56-0.8,3.7-3.18,2.6c-1.64-0.76-2.83-0.13-4.21,0.32
		c-3,0.98-5.69,0.78-7.48-2.24c-1.43-2.42-0.62-5.1,2.01-6.15c1.95-0.77,4.01-1.26,6.06-1.74c1.1-0.26,2.44-0.2,2.27-1.79
		c-0.16-1.47-1.34-1.98-2.7-2.06c-1.43-0.09-2.68,0.44-3.87,1.18c-1.01,0.62-2.16,1.15-2.92-0.15c-0.74-1.27,0.38-2.12,1.23-2.77
		c2.71-2.05,5.87-1.93,8.92-1.22c2.93,0.69,3.48,3.29,3.71,5.84c0.14,1.6,0.03,3.22,0.03,4.84
		C491.81,220.59,491.85,220.59,491.88,220.59z M485.41,219.11c-1.61,0.42-4.04,0.04-4.33,2.73c-0.14,1.34,0.39,2.92,2.23,2.7
		c2.21-0.27,4.07-1.41,4.54-3.73C488.17,219.29,486.81,219.13,485.41,219.11z"/>
	<path class="st1" d="M534.9,219.51c-0.3,0.03-1.05,0.04-1.79,0.16c-1.14,0.18-3.2-0.99-3.02,1.33c0.16,2.09,1.79,3.34,3.99,2.91
		c1.17-0.22,2.17-1.22,3.33-1.59c1.01-0.33,2.4-0.72,2.99,0.55c0.45,0.97-0.43,1.84-1.15,2.53c-2.16,2.06-7.01,2.56-9.9,1.03
		c-3.69-1.96-4.96-8-2.65-12.66c1.85-3.74,6.23-5.27,10.2-3.55c2.52,1.09,4.97,5.52,4.5,8.04c-0.22,1.18-1.04,1.25-1.94,1.26
		C538.09,219.52,536.72,219.51,534.9,219.51z M533.39,217.5c1.05-0.67,3.45,0.52,3.55-1.89c0.07-1.63-1.53-2.51-3.14-2.59
		c-1.78-0.09-3.31,0.65-3.55,2.55C529.97,217.83,531.96,217.1,533.39,217.5z"/>
	<path class="st1" d="M306.67,218.58c0.03-5.59,3.3-9.03,8.63-9.06c5.2-0.03,8.83,3.88,8.76,9.46c-0.06,4.8-3.7,8.31-8.64,8.31
		C309.72,227.29,306.65,224.23,306.67,218.58z M319.73,218.64c-0.05-3.35-1.97-5.76-4.54-5.7c-2.54,0.06-4.51,2.88-4.43,6.33
		c0.07,2.92,2.14,4.89,5.08,4.64C319.05,223.63,319.76,221.37,319.73,218.64z"/>
	<path class="st1" d="M411.28,218.48c0-2.12-0.13-4.24,0.04-6.34c0.13-1.59,1.2-3.44,2.78-2.16c1.94,1.56,3.18,0.89,4.97,0.17
		c4.06-1.63,7.38,0.42,7.68,4.74c0.23,3.22,0.02,6.47,0.11,9.71c0.05,1.75-0.72,2.59-2.4,2.55c-1.66-0.04-1.94-1.15-1.93-2.57
		c0.03-2.73-0.05-5.46-0.12-8.2c-0.04-1.84-0.28-3.54-2.77-3.57c-2.22-0.02-3.69,0.97-3.89,3.16c-0.25,2.72-0.19,5.47-0.26,8.2
		c-0.04,1.51,0.15,3.2-2.17,3.06c-2.03-0.12-2.3-1.51-2.25-3.17c0.06-1.87,0.01-3.73,0.01-5.6
		C411.18,218.48,411.23,218.48,411.28,218.48z"/>
	<path class="st1" d="M403.51,219.39c-1.17,0-2.91-0.12-4.64,0.05c-1,0.1-2.42-0.33-2.84,1.14c-0.3,1.09,0.42,1.91,1.2,2.55
		c0.96,0.78,1.97,1.62,3.35,0.91c0.32-0.17,0.59-0.46,0.87-0.69c1.54-1.26,3.76-2.25,4.75-0.4c0.87,1.61-1.46,2.87-2.97,3.64
		c-3.4,1.73-8.5,0.61-10.56-2.18c-2.16-2.93-1.6-10.05,1-12.58c2.64-2.58,6.96-2.94,9.98-0.94c1.92,1.27,2.66,3.18,3.3,5.23
		C407.78,218.77,406.88,219.92,403.51,219.39z M403.57,216.71c-1.3-2.6-2.49-4.43-5.29-3.61c-1.38,0.4-2.45,1.3-2.24,2.99
		c0.27,2.15,1.79,1.11,2.87,1.05C400.26,217.08,401.62,216.9,403.57,216.71z"/>
	<path class="st1" d="M37.72,218.33c0-1.62-0.04-3.23,0.01-4.85c0.09-2.86,0.27-5.6,4.05-2.41c1.07,0.91,1.78-0.35,2.62-0.71
		c4.83-2.05,8.56,0.17,8.8,5.4c0.14,2.97-0.05,5.96-0.09,8.94c-0.02,1.66-0.73,2.56-2.53,2.37c-1.77-0.19-1.72-1.35-1.68-2.69
		c0.08-2.61,0.01-5.22,0.01-7.83c0-2.1-0.69-3.92-3.09-3.76c-2.07,0.14-3.78,1.16-3.78,3.75c-0.01,2.73-0.16,5.47-0.31,8.2
		c-0.07,1.28-0.27,2.54-2.08,2.44c-1.65-0.1-2.04-1.09-2.01-2.52c0.04-2.11,0.01-4.23,0.01-6.34
		C37.67,218.33,37.7,218.33,37.72,218.33z"/>
	<path class="st1" d="M262.64,218.32c0,1.37,0.03,2.74-0.01,4.11c-0.07,2.84,0.73,6.57-4.41,3.68c-0.85-0.48-2.56,0.58-3.88,0.89
		c-4.26,0.99-6.83-0.81-7.14-5.17c-0.23-3.22-0.19-6.46-0.36-9.69c-0.09-1.65,0.74-2.2,2.2-2.29c1.6-0.11,2.24,0.59,2.21,2.18
		c-0.05,2.74-0.02,5.47,0.06,8.21c0.06,1.93,0.24,3.94,2.93,3.83c2.29-0.1,4.16-0.71,3.97-3.69c-0.16-2.6,0.05-5.23-0.09-7.83
		c-0.1-1.73,0.59-2.59,2.23-2.76c1.92-0.19,2.27,0.96,2.21,2.57c-0.08,1.99-0.02,3.98-0.02,5.97
		C262.57,218.32,262.6,218.32,262.64,218.32z"/>
	<path class="st1" d="M605.51,219.92c-0.02,0-0.28-0.05-0.52,0.01c-1.11,0.25-2.38-1.47-3.33,0.16c-0.62,1.05,0.24,1.88,0.83,2.65
		c1.04,1.36,2.43,1.7,3.98,1.04c0.9-0.39,1.66-1.09,2.55-1.47c0.97-0.41,2.11-0.33,2.75,0.52c0.78,1.04-0.08,1.78-0.89,2.44
		c-3.02,2.44-6.38,2.72-9.8,1.19c-3.1-1.38-4.07-4.18-4.04-7.36c0.05-5.16,2.26-8.36,6.31-9.28c5.25-1.19,9.8,2.73,9.5,8.1
		c-0.05,0.93-0.32,1.38-1.21,1.47C609.66,219.56,607.7,219.72,605.51,219.92z M601.78,215.61c-0.1,1.56,0.37,2.06,1.74,1.8
		c1.88-0.36,4.65,0.84,5.16-1.87c0.29-1.52-1.71-2.64-3.44-2.74C603.18,212.68,602.13,213.98,601.78,215.61z"/>
	<path class="st1" d="M210.24,227.35c-2.51,0.16-4.61-0.85-6.56-2.29c-0.81-0.6-1.84-1.43-1.41-2.39c0.53-1.17,1.96-0.78,2.98-0.56
		c0.8,0.17,1.49,0.8,2.23,1.24c1.2,0.71,2.44,1.23,3.89,1.06c0.95-0.11,1.68-0.42,1.92-1.44c0.26-1.13-0.48-1.63-1.32-1.92
		c-1.88-0.64-3.82-1.13-5.7-1.79c-2.11-0.74-3.82-1.91-3.67-4.49c0.15-2.56,1.56-4.07,4-4.75c3.18-0.88,6.17-0.6,8.92,1.3
		c0.73,0.51,1.45,1.23,1.04,2.17c-0.53,1.24-1.64,0.86-2.58,0.53c-1.61-0.56-2.97-1.88-4.88-1.57c-1,0.16-2.14,0.25-2.37,1.4
		c-0.26,1.29,0.93,1.67,1.84,1.95c1.42,0.44,2.91,0.67,4.37,1c2.77,0.62,5.19,1.86,4.93,5.07c-0.26,3.27-2.55,4.95-5.76,5.36
		C211.49,227.33,210.86,227.32,210.24,227.35z"/>
	<path class="st1" d="M328.52,218.67c0-1.62-0.02-3.24,0-4.85c0.08-4.19,0.42-4.46,4.11-2.73c1.23,0.58,1.82-0.2,2.66-0.62
		c4.65-2.32,8.25-0.44,8.72,4.76c0.28,3.09,0.08,6.21,0.14,9.32c0.03,1.71-0.76,2.56-2.48,2.48c-1.67-0.08-1.9-1.09-1.85-2.55
		c0.09-2.61,0.06-5.23-0.13-7.83c-0.13-1.8-0.14-4.14-2.92-3.77c-2.5,0.33-4.48,1.61-4.45,4.54c0.02,2.22,0.2,4.45,0.29,6.67
		c0.06,1.55,0.1,3.13-2.16,3.07c-2.01-0.06-1.95-1.42-1.89-2.89c0.08-1.86,0.02-3.73,0.02-5.6
		C328.55,218.67,328.53,218.67,328.52,218.67z"/>
	<path class="st1" d="M183.03,218.36c0-1.12-0.18-2.28,0.04-3.35c0.43-2.12-1.94-7.45,4.09-3.72c0.66,0.41,2.25-0.77,3.44-1.12
		c4.66-1.35,7.23,0.09,7.88,4.86c0.43,3.19,0.24,6.46,0.29,9.69c0.03,1.73-0.97,2.48-2.63,2.37c-1.66-0.11-1.91-1.19-1.87-2.62
		c0.06-2.74-0.05-5.48-0.02-8.21c0.03-2.37-1.17-3.58-3.43-3.27c-2.12,0.29-4.18,0.92-3.89,3.9c0.25,2.59,0.28,5.21,0.35,7.82
		c0.04,1.35-0.29,2.53-2,2.55c-1.71,0.02-2.46-0.8-2.38-2.55c0.1-2.11,0.02-4.23,0.02-6.35C182.97,218.36,183,218.36,183.03,218.36z
		"/>
	<path class="st1" d="M161.3,218.92c-0.06-5.58,3.57-9.24,9.16-9.25c4.72-0.01,8.74,4.02,8.7,8.71c-0.04,4.95-4.02,8.9-9.01,8.94
		C164.85,227.36,161.35,224.04,161.3,218.92z M174.75,219.93c0.03-4.61-1.83-7.07-4.74-6.99c-3.07,0.09-5.01,2.81-4.89,6.85
		c0.06,2.02,2.95,4.54,5.19,4.36C173.29,223.92,174.51,221.96,174.75,219.93z"/>
	<path class="st1" d="M441.35,219.33c-0.87,0-1.75-0.06-2.61,0.01c-1.08,0.09-2.42-0.18-2.98,1.02c-0.48,1.02,0.38,1.86,1.01,2.63
		c0.85,1.03,1.83,1.71,3.23,0.98c0.77-0.4,1.54-0.8,2.31-1.21c1.11-0.58,2.53-1.39,3.28-0.05c0.62,1.11-0.37,2.4-1.43,3.14
		c-2.67,1.89-5.57,2-8.51,0.75c-2.7-1.15-4.37-3.04-4.51-6.21c-0.27-6.2,1.48-9.51,5.88-10.59c5.25-1.28,9.96,2.45,9.88,7.79
		c-0.02,1.26-0.61,1.79-1.83,1.77c-1.24-0.02-2.49,0-3.73,0C441.35,219.35,441.35,219.34,441.35,219.33z M439.12,217.36
		c1.24-0.38,3.6,0.58,3.64-1.67c0.04-1.94-1.96-2.79-3.8-2.66c-1.64,0.11-3.29,0.89-3.17,2.87
		C435.92,217.96,437.7,217.27,439.12,217.36z"/>
	<path class="st1" d="M577.92,218.65c0-2.36-0.15-4.73,0.04-7.07c0.19-2.41,2.02-2.9,3.17-1.15c1.36,2.05,1.88,1.04,3.18,0.21
		c4.32-2.74,8.64-0.49,8.92,4.62c0.17,3.09,0.04,6.2,0.09,9.31c0.03,1.52-0.58,2.31-2.15,2.37c-1.86,0.07-1.81-1.07-1.83-2.45
		c-0.03-2.85-0.22-5.7-0.38-8.55c-0.09-1.59-0.58-3.2-2.4-3.24c-1.88-0.04-3.69,0.59-4.17,2.89c-0.62,2.95-0.38,5.94-0.35,8.91
		c0.02,1.63-0.33,2.66-2.22,2.56c-1.62-0.09-2.07-0.94-1.99-2.45c0.1-1.98,0.02-3.97,0.02-5.96
		C577.87,218.65,577.89,218.65,577.92,218.65z"/>
	<path class="st1" d="M653.74,65.22c-6.67-0.01-6.67-0.01-6.59-6.65c0.07-5.59,0.07-5.59,5.74-5.54c7.24,0.07,7.24,0.07,7.3,5.72
		C660.28,65.23,660.28,65.23,653.74,65.22z"/>
	<path class="st1" d="M68.22,218.34c0-2.24-0.06-4.48,0.02-6.71c0.07-1.9,1.63-2.75,2.66-1.45c1.51,1.92,2.34,1.08,3.87,0.29
		c4.53-2.35,8.32-0.15,8.57,4.9c0.14,2.98,0,5.97,0.07,8.95c0.04,1.63-0.48,2.67-2.27,2.68c-1.94,0-1.61-1.4-1.65-2.64
		c-0.09-2.73-0.27-5.46-0.39-8.19c-0.08-1.98-0.83-3.59-3-3.48c-1.96,0.11-3.64,1.16-3.78,3.42c-0.17,2.73-0.18,5.47-0.19,8.2
		c0,1.44,0.1,2.83-1.96,2.8c-1.97-0.02-2.06-1.32-2.02-2.81c0.06-1.99,0.01-3.98,0.01-5.97C68.18,218.34,68.2,218.34,68.22,218.34z"
		/>
	<path class="st1" d="M275.96,227.31c-3.88,0.11-6.76-1-8.08-4.57c-1.47-3.98-0.23-9.94,2.35-11.79c2.47-1.77,7.42-1.79,9.94,0.06
		c1.15,0.84,2.91,1.99,1.98,3.42c-1.04,1.6-2.58,0.94-4.06-0.37c-2.6-2.3-5.65-1.08-6.36,2.36c-0.2,0.96-0.24,1.98-0.19,2.97
		c0.09,1.78,0.42,3.56,2.36,4.28c1.79,0.66,3.45,0.31,4.71-1.23c1.09-1.33,2.62-2,3.86-0.76c1.41,1.41-0.49,2.39-1.21,3.37
		C279.89,226.93,277.89,227.51,275.96,227.31z"/>
	<path class="st1" d="M287.03,218.78c0.03-1.4,0.53-3.8-1.57-5.92c-1.25-1.26,2.59-8.06,4.47-8.36c1.49-0.23,1.24,0.81,1.26,1.62
		c0.05,1.94,0.34,3.5,2.55,4.41c1.43,0.6,1.33,1.78-0.35,2.64c-2.89,1.48-2.92,8.86-0.07,10.66c0.85,0.53,1.36,1.07,1.24,2.02
		c-0.14,1.11-1.11,1.17-1.96,1.34C288.2,228.07,286.71,226.12,287.03,218.78z"/>
	<path class="st1" d="M223.02,219.72c0-2.42,0.55-4.79-1.71-6.88c-1.38-1.28,2.58-7.96,4.7-8.36c1.51-0.28,1.27,0.74,1.25,1.57
		c-0.04,1.88-0.25,3.59,2.32,4.36c1.43,0.43,1.51,1.73-0.26,2.59c-2.14,1.04-3.06,8.8-1.25,10.42c0.95,0.85,2.9,1.05,2.29,2.85
		c-0.49,1.43-2.11,1.07-3.3,1.07c-1.72,0-3.16-0.53-3.74-2.43C222.79,223.17,222.9,221.45,223.02,219.72z"/>
	<path class="st1" d="M233.68,217.97c0.06-1.37,0.21-2.74,0.17-4.1c-0.09-2.94,0.26-5.17,4.11-3.42c1.26,0.57,2.39-0.44,3.6-0.65
		c1.18-0.21,2.38-0.41,2.63,1.16c0.22,1.37-0.34,2.82-1.84,2.68c-4.26-0.39-4.28,2.31-4.24,5.23c0.02,1.99,0,3.99-0.07,5.98
		c-0.05,1.28-0.21,2.61-2.02,2.49c-1.63-0.11-2.5-0.96-2.49-2.64c0.01-2.24,0-4.48,0-6.72
		C233.58,217.97,233.63,217.97,233.68,217.97z"/>
	<path class="st0" d="M358.43,219.21c0,5.46,0.01,10.91-0.01,16.37c-0.01,1.03,0.4,2.56-1.38,2.4c-1.52-0.14-0.81-1.57-0.82-2.39
		c-0.11-10.91-0.14-21.82-0.23-32.73c-0.01-1.17-0.24-2.39,1.5-2.27c1.55,0.1,1.13,1.32,1.13,2.25c0.01,5.46,0,10.91,0,16.37
		C358.57,219.21,358.5,219.21,358.43,219.21z"/>
	<path class="st1" d="M521.29,215.14c0,3.09-0.01,6.19,0.01,9.28c0.01,1.51-0.3,2.75-2.16,2.78c-1.72,0.03-2.03-1.13-2.04-2.48
		c-0.07-6.43-0.08-12.87-0.18-19.3c-0.03-1.73,0.89-2.02,2.33-2.07c1.58-0.05,2.2,0.47,2.14,2.13c-0.12,3.21-0.03,6.43-0.03,9.65
		C521.33,215.14,521.31,215.14,521.29,215.14z"/>
	<path class="st0" d="M124.44,221.17c0,5.59,0.01,11.17-0.01,16.76c0,0.89,0.56,2.19-1.13,2.16c-1.68-0.03-1.06-1.39-1.07-2.22
		c-0.06-10.3-0.09-20.6-0.1-30.91c0-0.99,0.06-1.99,0.23-2.96c0.14-0.81,0.75-1.31,1.6-1.24c1.15,0.09,0.77,0.94,0.77,1.67
		c-0.03,5.58-0.01,11.17-0.01,16.75C124.62,221.17,124.53,221.17,124.44,221.17z"/>
	<path class="st1" d="M616.97,221.36c0.24-3.21-0.6-6.42,0.08-9.64c0.21-1.01,0.52-2.44,1.65-1.88c2.33,1.16,4.38,0.64,6.61-0.01
		c0.91-0.26,2.11-0.08,2.27,1.27c0.11,0.95-0.46,1.96-1.31,1.99c-5.99,0.2-4.79,4.75-5.16,8.32c-0.13,1.23-0.07,2.48-0.06,3.72
		c0,1.36-0.61,2.1-2.02,2.05c-1.34-0.05-2.06-0.72-2.05-2.1C616.98,223.84,616.97,222.6,616.97,221.36z"/>
	<path class="st1" d="M62.87,218.55c0,1.98-0.07,3.97,0.02,5.95c0.08,1.75-0.73,2.52-2.39,2.56c-1.72,0.05-1.97-1-1.95-2.44
		c0.04-4.09,0.02-8.18-0.04-12.28c-0.02-1.5,0.45-2.28,2.1-2.36c1.72-0.08,2.18,0.81,2.18,2.24c0.01,2.11,0,4.21,0,6.32
		C62.82,218.55,62.84,218.55,62.87,218.55z"/>
	<path class="st1" d="M302.41,218.5c0,1.99,0,3.97,0,5.96c0,1.59-0.61,2.67-2.38,2.65c-1.92-0.02-2.19-1.25-1.98-2.81
		c0.52-3.84,0.07-7.67-0.17-11.51c-0.09-1.41-0.23-2.77,1.9-2.82c1.89-0.04,2.71,0.57,2.54,2.57c-0.16,1.97-0.04,3.97-0.04,5.96
		C302.32,218.5,302.36,218.5,302.41,218.5z"/>
	<path class="st1" d="M32.38,218.1c0,2.23-0.06,4.46,0.02,6.69c0.06,1.65-0.86,2.21-2.27,2.26c-1.52,0.05-1.78-0.97-1.8-2.22
		c-0.06-4.21-0.16-8.42-0.26-12.63c-0.03-1.5,0.49-2.29,2.17-2.24c1.55,0.05,2.24,0.56,2.15,2.19
		C32.3,214.14,32.38,216.12,32.38,218.1z"/>
	<path class="st0" d="M328.13,142.8c-2.84,0.77-3.25-0.59-3.46-3.08c-0.3-3.58,1.78-3.17,4.09-3.38c2.48-0.23,2.88,0.75,2.86,2.93
		C331.59,141.82,331.43,143.77,328.13,142.8z"/>
	<path class="st0" d="M555.99,142.8c-3.33,0.87-3.19-1.18-3.39-3.53c-0.29-3.41,1.94-2.55,3.81-2.81c2.42-0.34,3.06,0.64,2.99,2.87
		C559.32,141.67,559.27,143.75,555.99,142.8z"/>
	<path class="st1" d="M302.41,205.16c-0.14,1.3-0.81,2.03-2.17,1.95c-1.28-0.07-2.16-0.73-2.11-2.06c0.05-1.48,1.21-1.66,2.4-1.62
		C301.64,203.47,302.46,203.85,302.41,205.16z"/>
	<path class="st1" d="M32.36,205.38c-0.04,1.2-0.68,1.85-1.87,1.8c-1.44-0.06-2.35-0.75-2.25-2.32c0.08-1.32,1-1.53,2.1-1.5
		C31.65,203.4,32.46,203.93,32.36,205.38z"/>
	<path class="st1" d="M60.69,203.4c1.13-0.09,2.03,0.22,2.02,1.53c-0.01,1.23-0.57,2.21-1.95,2.22c-1.24,0.01-2.14-0.62-2.24-1.96
		C58.39,203.62,59.46,203.39,60.69,203.4z"/>
	<path class="st1" d="M27.47,97.74c0.12-17.06,2.54-32.1,9.4-46.05c8.56-17.41,22.24-29.26,40.97-34.78
		c6.09-1.8,12.54-2.2,18.9-2.98c12.96-1.61,25.41-0.26,37.47,4c19.64,6.94,33.43,20.26,41.06,39.7c6.71,17.08,8.32,34.84,5.98,52.88
		c-2.58,19.9-9.95,37.59-25.91,50.8c-12.7,10.51-27.65,15.32-43.83,16.23c-19.93,1.12-38.77-2.44-55.23-14.67
		c-12.65-9.4-20.14-22.2-24.69-36.94C28.59,116.24,27.6,106.23,27.47,97.74z M60.67,97.48c0.68,3.92,0.32,8.83,0.97,13.76
		c1.22,9.26,4.91,17.27,10.53,24.4c9.15,11.6,21.68,15.44,36,14.4c5.48-0.4,10.8-1.18,15.9-3.73c7.3-3.65,12.84-9.25,16.82-15.89
		c3.58-5.97,6.06-12.67,7.02-19.91c1.36-10.19,1.75-20.26-0.06-30.37C146,69.7,142.6,59.84,135.16,51.97
		c-10.01-10.59-23.03-12.15-36.61-11.06c-10.29,0.83-19.67,4.24-26.13,12.73c-4.86,6.39-8.2,13.76-9.97,21.58
		C60.88,82.19,60.65,89.38,60.67,97.48z"/>
	<path class="st0" d="M310.2,170.24c0.26-0.06,0.53-0.12,0.79-0.19c-0.07,0.26-0.13,0.52-0.2,0.78
		C310.59,170.64,310.4,170.44,310.2,170.24z"/>
</g>
</svg>
